<?xml version="1.0" encoding="utf-8"?>
<!-- Generator: Adobe Illustrator 19.0.0, SVG Export Plug-In . SVG Version: 6.00 Build 0)  -->
<svg version="1.2" baseProfile="tiny" xmlns="http://www.w3.org/2000/svg" xmlns:xlink="http://www.w3.org/1999/xlink" x="0px"
	 y="0px" width="1353.1px" height="594.3px" viewBox="0 0 1353.1 594.3" xml:space="preserve">
<g id="圖層_2">
	<path id="XMLID_253_" fill="none" stroke="#231815" stroke-miterlimit="10" d="M1353,149.8c0.4-38.5-14.2-74.9-41.1-102.4
		c-26.9-27.5-63.1-42.9-101.9-43.3c-159.5-1.2-159.5-1.2-160.2-1.2c-38.1,0.1-74,14.9-101.1,41.8c-14.4,14.3-25.4,30.9-32.7,49.4
		c-19.2-46.5-61.2-79.9-111-87.7l-4.5-0.7C793.2,4.5,785.5,3.9,778,4c-21,0-43.1,5.2-62.5,14.5c-12.2-5.7-25.2-9.7-38.7-11.8
		L672.3,6c-7.5-1.2-15.1-1.8-22.7-1.7c-19.9,0-40,4.3-58.2,12.4c-10.9-4.6-22.6-7.9-34-9.7L553,6.3c-7.5-1.2-15.1-1.8-22.7-1.7
		c-22.6,0.1-46.1,5.9-66.5,16.5C442.3,8.4,416.9,1.4,392.3,1.1C299.1,0.6,187.9,0,187.9,0c-36.6,0.1-71.4,13.9-98.1,38.9
		c-24.6,23-40.4,54-44.6,87.4c-0.1,0.4-0.1,0.8-0.2,1.2L1.7,419.5c-5.8,37.9,3.4,75.8,26,106.8c22.7,31.1,56.2,51.5,94.2,57.5
		l4.4,0.7c7.5,1.2,15.1,1.8,22.7,1.7c16.3,0,33.1-3,48.6-8.6c7.9,2.7,16.2,4.7,24.1,6l4.4,0.7c7.5,1.2,15.1,1.8,22.7,1.7
		c16.3,0,33.1-3,48.6-8.6c7.9,2.7,16.2,4.7,24.1,6l4.5,0.7c7.5,1.2,15.1,1.8,22.7,1.7c23.4-0.1,47.7-6.3,68.6-17.6
		c20.8,11.7,45.2,18.3,68.7,18.6l121.7,1.4c0.6,0,1.9,0,1.9,0c41.3-0.1,80.3-17.9,107.5-49c22.6,28.5,54.7,47.3,90.7,52.9l4.4,0.7
		c7.5,1.2,15.1,1.8,22.7,1.7h0c31.5-0.1,62.5-10.7,87.5-29.9c8.2,5,16.9,9.2,26,12.5c15.3,5.5,31.4,8.4,47.8,8.6l158.3,1.2
		c0.6,0,1.9,0,1.9,0c38.1-0.1,74-14.9,101.1-41.8c27.1-26.9,42.3-62.7,42.7-100.8l0-4.5c0.2-17.4-2.9-35.2-8.9-51.6
		c20.8-25.3,32.5-57.2,32.8-90.1l0-4.5c0.2-15.2-2.2-31-6.9-45.7c22.7-25.8,35.4-59,35.7-93.5L1353,149.8z"/>
	<path id="XMLID_243_" fill="none" stroke="#231815" stroke-miterlimit="10" d="M1210,14.3c-159.4-1.2-159.5-1.2-160.1-1.2
		c-35.4,0.1-68.8,13.9-93.9,38.8c-23.9,23.7-37.8,54.8-39.5,88.2c-4-61.1-50.1-113.8-112.9-123.6l-4.5-0.7c-7-1.1-14-1.6-21-1.6
		c-21.2,0-43.4,5.6-62.5,15.7c-12.6-6.5-26.2-10.9-40.3-13.1l-4.4-0.7c-6.9-1.1-14-1.6-21-1.6c-20,0-40.1,4.7-58.1,13.4
		c-11.3-5.2-23.6-8.9-35.7-10.8l-4.4-0.7c-6.9-1.1-14-1.6-21-1.6c-23,0.1-46.7,6.5-66.9,18.1c-21.1-13.6-46.4-21.3-71.4-21.5
		C299,10.8,188,10.2,187.9,10.2c-34,0.1-66.3,12.9-91.2,36.1c-22.9,21.4-37.6,50.3-41.4,81.3c-0.1,0.4-0.1,0.9-0.2,1.3L11.8,421
		C6.4,456.2,15,491.5,36,520.2c21.1,28.9,52.2,47.9,87.5,53.4l4.4,0.7c7,1.1,14,1.6,21.1,1.6c16.4,0,33.1-3.2,48.6-9.3
		c8.4,3.1,17.3,5.4,25.8,6.7l4.4,0.7c7,1.1,14,1.6,21.1,1.6c16.4,0,33.1-3.2,48.6-9.3c8.4,3.1,17.3,5.4,25.8,6.7l4.5,0.7
		c6.9,1.1,14,1.6,21,1.6c23.8-0.1,48.2-6.9,68.8-19.2c20.5,12.7,44.8,19.9,68.7,20.2l121.6,1.4c0.6,0,1.8,0,1.8,0
		c39.4-0.1,76.5-17.5,101.8-47.9c2.2-2.5,4.3-5,6.3-7.6c1.4,2.1,2.8,4.1,4.2,6.1c21.1,28.9,52.2,47.9,87.5,53.4l4.4,0.7
		c7,1.1,14,1.6,21.1,1.6h0c31.6-0.1,62.3-11.4,86.4-31.9c0.1-0.1,0.3-0.2,0.4-0.3c9.3,6.4,19.5,11.6,30.1,15.5
		c14.2,5.1,29.1,7.8,44.4,8l158.3,1.2c0.6,0,1.7,0,1.7,0c35.4-0.1,68.8-13.9,94-38.8c25.2-25,39.3-58.2,39.7-93.7l0-4.5
		c0.2-18.2-3.4-36.7-10.4-53.5c21.8-24.2,34-55.5,34.4-88.2l0-4.5c0.2-16.2-2.7-32.8-8.3-48.1c23.6-24.6,36.8-57,37.2-91.2l0-4.5
		c0.4-35.8-13.2-69.6-38.2-95.1C1279.6,29,1246,14.7,1210,14.3z M916.4,158.4c0.4,7.8,1.5,15.6,3.3,23.3c-1.9-1-3.9-2-5.9-3l1.4-10
		C915.8,165.3,916.2,161.8,916.4,158.4z"/>
	<path id="XMLID_234_" fill="none" stroke="#231815" stroke-miterlimit="10" d="M1209.9,24.6c-159.4-1.2-159.5-1.2-160-1.2
		c-32.7,0.1-63.5,12.8-86.8,35.8c-23.3,23-36.3,53.8-36.6,86.5l0,4.5c-0.2,17.2,3.3,34.6,10.2,50.4c-0.8,0.7-1.6,1.5-2.4,2.3
		c-0.2,0.2-0.3,0.3-0.5,0.5c-1.5-1.2-2.9-2.3-4.4-3.4c-8.2-6.1-17.2-11.1-26.8-15l2.6-17.7c10.1-67-36.2-130.1-103.2-140.6l-4.4-0.7
		c-6.4-1-13-1.5-19.4-1.5c-21.5,0-43.7,6.1-62.5,17.1c-12.9-7.4-27.1-12.3-42-14.7l-4.4-0.7c-6.4-1-13-1.5-19.4-1.5
		c-20.2,0-40.2,5.1-58,14.6c-11.7-5.9-24.6-10.1-37.4-12.2l-4.4-0.7c-6.4-1-13-1.5-19.4-1.5c-23.5,0.1-47.3,7.2-67.2,20.1
		c-20.6-14.9-45.8-23.2-71.2-23.5C299,21.1,188,20.5,187.9,20.5c-31.4,0.1-61.3,11.9-84.2,33.3C82.6,73.6,69,100.4,65.5,129.1
		c-0.1,0.5-0.2,0.9-0.2,1.4l-43.3,292c-5,32.5,3,65,22.3,91.6c19.5,26.7,48.2,44.2,80.8,49.3l4.4,0.7c6.4,1,13,1.5,19.5,1.5
		c16.5,0,33.2-3.5,48.5-10c8.8,3.6,18.3,6.2,27.5,7.6l4.4,0.7c6.4,1,13,1.5,19.5,1.5c16.5,0,33.2-3.5,48.5-10
		c8.8,3.6,18.3,6.2,27.5,7.6l4.5,0.7c6.4,1,13,1.5,19.4,1.5c24.3-0.1,48.7-7.6,68.9-21.2c20,14,44.4,21.8,68.7,22.1l121.6,1.4
		c0.6,0,1.7,0,1.7,0c36.4-0.1,70.7-16.2,94-44.3c5.6-6.3,10.6-13.2,14.8-20.5c3.3,6.9,7.2,13.5,11.7,19.7
		c19.5,26.7,48.2,44.2,80.8,49.3l4.4,0.7c6.4,1,13,1.5,19.5,1.5h0c29.2-0.1,57.5-10.5,79.8-29.5c2.2-1.8,4.3-3.8,6.3-5.8
		c10.4,8.2,21.9,14.6,34.3,19.1c13.1,4.7,26.9,7.2,41,7.4l158.4,1.2c0.5,0,1.6,0,1.6,0c32.7-0.1,63.5-12.8,86.8-35.8
		c23.3-23.1,36.3-53.8,36.6-86.5l0-4.5c0.2-19.2-4.1-38.3-12.4-55.4c23.1-23,36-53.6,36.3-86.2l0-4.5c0.2-17.2-3.3-34.6-10.1-50.4
		c0.8-0.7,1.6-1.5,2.3-2.2c23.3-23.1,36.3-53.8,36.6-86.5l0-4.5c0.4-33-12.2-64.2-35.3-87.9C1274.2,38.1,1243.2,24.9,1209.9,24.6z"
		/>
	<path id="XMLID_225_" fill="none" stroke="#231815" stroke-miterlimit="10" d="M1209.8,34.8c-159.3-1.2-159.4-1.2-159.9-1.2
		c-30,0.1-58.3,11.7-79.6,32.9c-21.3,21.1-33.3,49.3-33.6,79.4l0,4.5c-0.2,18.3,4.1,36.6,12.5,52.9c-2.7,2.2-5.2,4.5-7.7,6.9
		c-2.4,2.4-4.7,4.9-6.9,7.5c-3.6-3.4-7.3-6.6-11.3-9.5c-9.7-7.1-20.5-12.7-32-16.4l3.7-26c9.2-61.5-33.2-119.4-94.7-129l-4.4-0.7
		c-5.9-0.9-11.9-1.4-17.8-1.4c-21.9,0.1-44,6.8-62.4,18.9C702.4,45.1,687.7,39.5,672,37l-4.4-0.7c-5.9-0.9-11.9-1.4-17.8-1.4
		c-20.4,0-40.4,5.6-57.9,16.1c-12-6.9-25.5-11.6-39.1-13.7l-4.4-0.7c-5.9-0.9-11.9-1.4-17.8-1.4c-24.2,0.1-48.1,8-67.5,22.5
		c-19.9-16.5-45.1-25.6-71-25.9c-93-0.5-203.9-1.1-204-1.1c-28.8,0.1-56.2,10.9-77.2,30.6c-19.5,18.2-32,42.8-35.1,69.3
		c-0.1,0.5-0.2,1-0.2,1.5L32,424.1c-4.6,29.8,2.7,59.7,20.5,84c17.9,24.5,44.2,40.6,74.1,45.2l4.4,0.7c5.9,0.9,11.9,1.4,17.9,1.4
		c16.6,0,33.3-3.8,48.4-11c9.3,4.2,19.3,7.2,29.2,8.7l4.4,0.7c5.9,0.9,11.9,1.4,17.9,1.4c16.6,0,33.3-3.8,48.4-11
		c9.3,4.2,19.3,7.2,29.2,8.7l4.4,0.7c5.9,0.9,11.9,1.4,17.8,1.4c24.9-0.1,49.3-8.4,69-23.6c19.5,15.6,43.8,24.3,68.7,24.6l121.6,1.4
		c0.5,0,1.5,0,1.5,0c33.4-0.1,64.9-14.9,86.3-40.8c10.8-12,18.8-26.2,23.7-41.5c3.4,14.8,9.9,28.9,18.9,41.3
		c17.9,24.5,44.2,40.6,74.1,45.2l4.4,0.7c5.9,0.9,11.9,1.4,17.9,1.4h0c26.8-0.1,52.8-9.7,73.2-27c4.3-3.7,8.4-7.8,12.2-12.1
		c20.8,19.3,47.7,30,76.2,30.3l158.4,1.2c0.5,0,1.5,0,1.5,0c30-0.1,58.3-11.7,79.6-32.9c21.3-21.1,33.3-49.3,33.6-79.4l0-4.5
		c0.2-20.2-4.9-40.1-14.8-57.4c1.8-1.6,3.5-3.2,5.2-4.8c21.3-21.1,33.3-49.3,33.6-79.4l0-4.5c0.2-18.4-4.1-36.6-12.4-52.9
		c2.6-2.2,5.2-4.5,7.6-6.9c21.3-21.1,33.3-49.3,33.6-79.4l0-4.5c0.3-30.3-11.2-58.9-32.4-80.6C1268.8,47.2,1240.3,35.1,1209.8,34.8z
		"/>
	<path id="XMLID_215_" fill="none" stroke="#231815" stroke-miterlimit="10" d="M1209.8,45c-159.3-1.2-159.4-1.2-159.8-1.2
		c-27.3,0.1-53,10.7-72.4,29.9c-19.4,19.2-30.3,44.9-30.6,72.2l0,4.5c-0.2,19.7,5.1,38.8,15.5,55.5c-4.9,3.4-9.5,7.3-13.8,11.5
		c-5,4.9-9.5,10.4-13.3,16.1c-5.4-6.4-11.5-12.2-18.2-17.1c-11.1-8.1-23.9-14.1-37.4-17.3l5-34.9c8.4-56-30.2-108.6-86.1-117.4
		l-4.4-0.7c-5.4-0.8-10.8-1.3-16.2-1.2c-22.4,0.1-44.5,7.6-62.4,21.2c-0.4-0.3-0.7-0.5-1.1-0.8c-13.2-9.5-28.1-15.6-44.3-18.2
		l-4.4-0.7c-5.4-0.8-10.8-1.3-16.2-1.2c-20.7,0-40.7,6.2-57.8,17.9c-12.2-8-26.2-13.4-40.8-15.7l-4.4-0.7
		c-5.4-0.8-10.8-1.3-16.2-1.2c-24.4,0.1-48,8.8-66.6,24.6c-0.4,0.4-0.9,0.7-1.3,1.1c-1.1-1-2.1-2-3.2-3
		c-18.6-16.6-42.6-25.9-67.5-26.1c-93-0.5-203.8-1.1-203.8-1.1c-26.2,0.1-51.1,9.9-70.2,27.8c-17.8,16.6-29.2,39.1-32,63.3
		c-0.1,0.5-0.2,1-0.3,1.6l-43.3,292c-4.2,27.1,2.5,54.3,18.6,76.5c16.3,22.3,40.2,36.9,67.5,41.2l4.4,0.7c5.4,0.8,10.8,1.3,16.2,1.2
		c16.8,0,33.4-4.2,48.3-12.1c9.6,4.9,20.3,8.3,30.9,10l4.4,0.7c5.4,0.8,10.8,1.3,16.2,1.2c16.8,0,33.4-4.2,48.3-12.1
		c9.6,4.9,20.3,8.3,30.9,10l4.4,0.7c5.4,0.8,10.8,1.3,16.2,1.2c24.4-0.1,48-8.8,66.6-24.6c0.9-0.7,1.7-1.5,2.6-2.3
		c18.8,17.6,43.1,27.5,68.7,27.8l121.6,1.4c0.5,0,1.4,0,1.4,0c30.5-0.1,59.1-13.6,78.6-37.2c13.4-14.9,22.1-33.2,25.2-53l9-60.8
		c3.5,1.2,7.1,2.3,10.8,3.2l-5,34.9c-4.1,27,2.6,54.1,18.7,76.2c16.3,22.3,40.2,36.9,67.4,41.2l4.4,0.7c5.4,0.8,10.8,1.3,16.2,1.2
		c24.4-0.1,48-8.8,66.6-24.6c6.8-5.8,12.8-12.5,18-19.9c1.6,1.8,3.2,3.5,4.8,5.2c19.3,19.3,44.9,30.2,72.2,30.5l158.4,1.2
		c0.4,0,1.4,0,1.4,0c27.3-0.1,53-10.7,72.4-29.9c19.4-19.2,30.3-44.9,30.6-72.2l0-4.5c0.2-21.5-6-42-18.1-59.6
		c4.1-3,7.9-6.3,11.5-9.8c19.4-19.2,30.3-44.9,30.6-72.2l0-4.5c0.2-19.7-5.1-38.9-15.5-55.5c4.9-3.4,9.5-7.2,13.7-11.4
		c19.4-19.2,30.3-44.9,30.6-72.2l0-4.5c0.3-27.6-10.1-53.6-29.4-73.3C1263.4,56.4,1237.5,45.3,1209.8,45z"/>
	<path id="XMLID_203_" fill="none" stroke="#231815" stroke-miterlimit="10" d="M1209.7,55.3c-159.2-1.2-159.3-1.2-159.7-1.2
		c-24.6,0.1-47.8,9.6-65.2,26.9c-17.5,17.3-27.3,40.4-27.5,65.1l0,4.5c-0.2,21.2,6.8,41.8,19.9,58.4c-7.8,4.2-14.9,9.5-21.2,15.7
		c-8.3,8.2-14.8,17.6-19.5,28.1c-6.4-11-15.1-20.6-25.3-28.1c-11.9-8.8-25.9-14.6-40.6-16.9c0,0-1.1-0.2-2.2-0.3l6.4-44.6
		c7.6-50.4-27.2-97.9-77.6-105.8l-4.4-0.7c-4.8-0.8-9.7-1.1-14.6-1.1c-21.9,0.1-43.2,7.9-60,22.1c-0.8,0.7-1.5,1.3-2.3,2
		c-2.3-2-4.7-3.9-7.1-5.7c-11.9-8.6-25.3-14.1-39.8-16.4l-4.4-0.7c-4.8-0.8-9.7-1.1-14.6-1.1c-20.9,0-41.4,7.2-57.8,20.3
		c-12.3-9.5-26.9-15.8-42.5-18.2l-4.4-0.7c-4.8-0.8-9.7-1.1-14.6-1.1c-21.9,0.1-43.2,7.9-60,22.2c-2.9,2.5-5.7,5.1-8.3,8
		c-3-3.6-6.2-6.9-9.7-10c-16.8-14.9-38.4-23.3-60.8-23.5c-92.9-0.5-203.7-1.1-203.7-1.1c-23.6,0.1-46.1,9-63.3,25.1
		c-16.1,15.1-26.3,35.4-28.9,57.3c-0.1,0.6-0.2,1.1-0.3,1.7l-43.3,292c-3.7,24.4,2.2,48.9,16.8,68.9c14.6,20.1,36.2,33.2,60.8,37.1
		l4.4,0.7c4.8,0.8,9.8,1.1,14.6,1.1c17,0,33.6-4.7,48.2-13.6c10,5.8,21.2,9.8,32.6,11.6l4.4,0.7c4.8,0.8,9.8,1.1,14.6,1.1
		c17,0,33.6-4.7,48.2-13.6c10,5.8,21.2,9.8,32.6,11.6l4.4,0.7c4.8,0.8,9.8,1.1,14.6,1.1c21.9-0.1,43.2-7.9,60-22.2
		c3.3-2.8,6.4-5.9,9.3-9.1c17.4,20.2,42.3,31.9,68.7,32.2l121.6,1.4c0.4,0,1.2,0,1.2,0c27.5-0.1,53.3-12.3,70.8-33.7
		c12.1-13.4,20-30,22.8-47.9l11-73.9c8.8,4.6,18.3,7.6,28.3,9.2l2.2,0.3l-6.4,44.6c-3.7,24.4,2.3,48.8,16.8,68.7
		c14.6,20.1,36.2,33.2,60.8,37.1l4.4,0.7c4.8,0.8,9.8,1.1,14.6,1.1c21.9-0.1,43.2-7.9,60-22.2c9.9-8.4,18-18.9,23.6-30.6
		c3.7,5.9,8.1,11.5,13.1,16.5c17.4,17.4,40.5,27.2,65.1,27.4l158.5,1.2c0.4,0,1.2,0,1.2,0c24.6-0.1,47.8-9.6,65.2-26.9
		c17.5-17.3,27.3-40.4,27.5-65l0-4.5c0.3-22.9-7.8-44.8-22.7-62c7-4,13.4-8.9,19.2-14.6c17.5-17.3,27.3-40.4,27.5-65l0-4.5
		c0.2-21.2-6.8-41.9-19.8-58.4c7.7-4.2,14.8-9.5,21.1-15.7c17.5-17.3,27.3-40.4,27.5-65l0-4.5c0.3-24.8-9.1-48.3-26.5-66.1
		C1258,65.5,1234.7,55.5,1209.7,55.3z"/>
	<path id="XMLID_186_" fill="none" stroke="#231815" stroke-miterlimit="10" d="M1209.6,65.5c-159.2-1.2-159.3-1.2-159.6-1.2
		c-21.9,0.1-42.5,8.6-58,24c-15.6,15.4-24.3,36-24.5,57.9l0,4.5c-0.2,19.8,6.7,39,19.5,54.2c2.3,2.7,4.7,5.3,7.4,7.7
		c-11.6,4-22.3,10.7-31.2,19.5c-15.6,15.4-24.3,36-24.5,57.9l0,1.9c-3.5-36.7-31.6-68-69.6-73.9l-4.4-0.7c-2.6-0.4-5.2-0.7-7.8-0.8
		l7.9-55.1c6.8-44.9-24.2-87.1-69-94.2l-4.4-0.7c-4.3-0.7-8.7-1-13-1c-19.5,0-38.5,7-53.4,19.7c-3.2,2.7-6.1,5.6-8.8,8.7
		c-4-4.4-8.4-8.4-13.2-11.9c-10.6-7.6-22.5-12.5-35.4-14.5l-4.4-0.7c-4.3-0.7-8.7-1-13-1c-19.5,0-38.5,7-53.4,19.7
		c-1.5,1.3-2.9,2.6-4.3,3.9c-12.2-11.6-27.4-19-44.1-21.7l-4.4-0.7c-4.3-0.7-8.7-1-13-1c-19.5,0-38.5,7-53.4,19.7
		c-5.9,5-11,10.8-15.3,17.3c-4.3-7.3-9.7-13.8-16-19.5c-14.9-13.3-34.1-20.7-54.1-21C298.8,62,188.1,61.4,188,61.4
		c-21,0-41,8-56.3,22.3c-14.4,13.5-23.5,31.7-25.7,51.3c-0.1,0.6-0.2,1.2-0.3,1.8l-43.3,292c-3.3,21.7,2,43.5,14.9,61.3
		c13,17.9,32.2,29.6,54.1,33l4.4,0.7c4.3,0.7,8.7,1,13,1c17.1,0,34.1-5.6,48.1-15.6c10.2,7,22,11.7,34.3,13.6l4.4,0.7
		c4.3,0.7,8.7,1,13,1c17.1,0,34.1-5.6,48.1-15.6c10.2,7,22,11.7,34.3,13.6l4.4,0.7c4.3,0.7,8.7,1,13,1c19.5,0,38.5-7,53.4-19.7
		c6.3-5.3,11.7-11.5,16.1-18.4c6.9,11.1,16.4,20.4,27.6,27.2c12.5,7.6,26.7,11.7,41.1,11.8l121.6,1.4c0.4,0,1.1,0,1.1,0
		c24.5-0.1,47.5-11,63.1-30.1c10.9-12,17.9-26.8,20.5-42.8l13.3-89.4c10.9,8.4,23.9,14,37.7,16.1l4.4,0.7c2.6,0.4,5.2,0.7,7.8,0.8
		l-7.9,55.1c-3.3,21.7,2,43.4,15,61.2c13,17.9,32.2,29.6,54.1,33l4.4,0.7c4.3,0.7,8.7,1,13,1c19.5,0,38.5-7,53.4-19.7
		c15.1-12.8,25.1-30.7,28.2-50.3l0.4-2.8c3.4,14.9,11,28.5,22,39.6c15.5,15.5,36,24.2,57.9,24.4l158.5,1.2c0.4,0,1.1,0,1.1,0
		c21.9-0.1,42.5-8.6,58-24c15.6-15.4,24.3-36,24.5-57.9l0-4.5c0.2-22.1-8.1-43-23.6-58.8c-2.1-2.1-4.3-4.2-6.6-6.1
		c11-4.1,21.2-10.5,29.6-18.9c15.6-15.4,24.3-36,24.5-57.9l0-4.5c0.2-22.1-8.1-43-23.6-58.8c-1-1.1-2.1-2.1-3.2-3.1
		c11.6-4,22.3-10.7,31.1-19.4c15.6-15.4,24.3-36,24.5-57.9l0-4.5c0.2-22.1-8.1-43-23.6-58.8C1252.6,74.6,1231.8,65.7,1209.6,65.5z
		 M938.9,302.7c2,21.9,12.8,42.3,29.9,56.4c-11.1,4.1-21.3,10.6-29.7,18.9c-5.1,5-9.4,10.6-13,16.6L938,312
		C938.5,308.9,938.8,305.8,938.9,302.7z"/>
			<path id="XMLID_194_" fill="none" stroke="#231815" stroke-miterlimit="10" d="M936.7,370.6c0.4,0.2,0.7,0.3,1.1,0.3
		c0.6,0,1.1-0.2,1.5-0.6c5.1-4.4,10.7-8.3,16.6-11.4c0.6-0.3,1.1-1,1.2-1.7c0.1-0.7-0.1-1.5-0.6-2c-4.8-5.2-9-11-12.5-17.2
		c-0.5-0.9-1.5-1.4-2.5-1.2c-1,0.2-1.8,1-1.9,2l-4.2,29.4C935.3,369.2,935.8,370.1,936.7,370.6z"/>
	<path id="XMLID_11_" fill="none" stroke="#231815" stroke-miterlimit="10" d="M1009.5,366.8c-3.5-0.6-6.8-1.4-10.1-2.4"/>
	<path id="XMLID_158_" fill="none" stroke="#231815" stroke-miterlimit="10" d="M867.4,227.9L867.4,227.9l-4.4-0.7
		c-6-0.9-12.1-1.1-18.1-0.6l9.7-67c6-39.4-21.1-76.4-60.5-82.5l-4.4-0.7c-3.8-0.6-7.6-0.9-11.4-0.9c-17.1,0-33.7,6.2-46.8,17.3
		c-6.1,5.2-11.2,11.2-15.3,18.1c-11.2-18.1-29.3-30.2-50.4-33.5l-4.4-0.7c-3.8-0.6-7.6-0.9-11.4-0.9c-17.1,0-33.7,6.2-46.8,17.3
		c-4,3.4-7.6,7.3-10.8,11.4c-11.4-14.5-27.5-24-45.8-26.9l-4.4-0.7c-3.8-0.6-7.6-0.9-11.4-0.9c-17.1,0-33.7,6.2-46.8,17.3
		c-10.8,9.2-18.6,21.3-22.6,34.7c-3.5-14.3-11.2-27.3-22.2-37.1c-13.1-11.6-29.9-18.2-47.4-18.4c-92.8-0.5-203.4-1.1-203.4-1.1
		c-18.4,0-35.9,7-49.3,19.5c-12.7,11.9-20.7,28-22.6,45.3c-0.1,0.6-0.2,1.2-0.3,1.9L72.5,430.3c-2.9,19.1,1.7,38.2,13.1,53.7
		C97,499.7,113.9,510,133,513l4.4,0.7c3.8,0.6,7.6,0.9,11.4,0.9c17.1,0,33.7-6.2,46.8-17.3c0.4-0.3,0.8-0.7,1.2-1.1
		c10.2,8.7,22.6,14.4,36,16.5l4.4,0.7c3.8,0.6,7.6,0.9,11.4,0.9c17.1,0,33.7-6.2,46.8-17.3c0.4-0.3,0.8-0.7,1.2-1.1
		c10.2,8.7,22.6,14.4,36,16.5l4.4,0.7c3.8,0.6,7.6,0.9,11.4,0.9c17.1,0,33.7-6.2,46.8-17.3c11-9.3,18.9-21.7,22.8-35.4
		c0.7,2.4,1.6,4.9,2.6,7.2c10.5,27.4,37.1,46,66.2,46.4l121.6,1.4c0.3,0,1,0,1,0c21.5,0,41.7-9.7,55.4-26.6
		c9.6-10.5,15.9-23.6,18.1-37.7L699,342.8c11.4,14.9,27.8,24.7,46.4,27.6l4.4,0.7c6,0.9,12.1,1.1,18.1,0.6l-9.7,67
		c-2.9,19,1.8,38.1,13.1,53.6c11.4,15.7,28.2,25.9,47.4,28.9l4.4,0.7c3.8,0.6,7.6,0.9,11.4,0.9c17.1,0,33.7-6.2,46.8-17.3
		c13.2-11.2,22-26.9,24.7-44.1l21.7-150.8C933.9,271.1,906.7,234.1,867.4,227.9z"/>
	<path id="XMLID_149_" fill="none" stroke="#231815" stroke-miterlimit="10" d="M1209,215c16.5,0,32-6.4,43.7-18
		c11.7-11.6,18.3-27.1,18.4-43.6l0-4.5c0.2-16.6-6.1-32.3-17.8-44.2c-11.6-11.9-27.2-18.5-44-18.7c-159.1-1.2-159.2-1.2-159.4-1.2
		c-16.5,0-32,6.4-43.7,18c-11.7,11.6-18.3,27.1-18.4,43.6l0,4.5c-0.4,34.3,27.3,62.6,61.7,63C1208.9,215,1208.9,215,1209,215z"/>
	<path id="XMLID_140_" fill="none" stroke="#231815" stroke-miterlimit="10" d="M452.3,136c-2.2-14.4-9.3-27.6-20.2-37.2
		c-11.2-10-25.7-15.6-40.7-15.8c-92.7-0.5-203.3-1.1-203.3-1.1c-15.8,0-30.8,6-42.4,16.8c-11,10.3-17.9,24.3-19.4,39.3
		c-0.1,0.7-0.2,1.3-0.3,1.9L82.7,431.8c-2.5,16.4,1.5,32.8,11.2,46.2c9.8,13.4,24.3,22.3,40.7,24.8l4.4,0.7c3.2,0.5,6.5,0.8,9.8,0.8
		c14.7,0,29-5.3,40.2-14.8c2.8-2.4,5.4-5,7.7-7.8c9.6,11.3,22.9,18.7,37.7,21l4.4,0.7c3.2,0.5,6.5,0.8,9.8,0.8
		c14.7,0,29-5.3,40.2-14.8c2.8-2.4,5.4-5,7.7-7.8c9.6,11.3,22.9,18.7,37.7,21l4.4,0.7c3.2,0.5,6.5,0.8,9.8,0.8
		c14.7,0,28.9-5.3,40.2-14.8c11.4-9.7,18.9-23.1,21.2-37.8l43.3-291.9C454.3,151.5,454,143.7,452.3,136z"/>
	<path id="XMLID_131_" fill="none" stroke="#231815" stroke-miterlimit="10" d="M1180.1,358.7c16.5,0,32-6.4,43.7-18
		c11.7-11.6,18.3-27.1,18.4-43.6l0-4.5c0.2-16.6-6.1-32.3-17.8-44.2c-11.6-11.9-27.2-18.5-43.9-18.7c0,0,0,0,0,0
		c-159.1-1.2-159.2-1.2-159.4-1.2c-16.5,0-32,6.4-43.7,18c-11.7,11.6-18.3,27.1-18.4,43.6l0,4.5c-0.4,34.3,27.3,62.6,61.7,63
		l158.5,1.2C1179.5,358.7,1180.1,358.7,1180.1,358.7z"/>
	<path id="XMLID_113_" fill="none" stroke="#231815" stroke-miterlimit="10" d="M865.8,238.1L865.8,238.1l-4.4-0.7
		c-3.2-0.5-6.5-0.8-9.8-0.8c-6.4,0-12.8,1-18.9,3l11.7-81.4c5.2-33.8-18.1-65.6-51.9-70.9l-4.4-0.7c-3.2-0.5-6.5-0.8-9.8-0.8
		c-14.7,0-29,5.3-40.2,14.8c-11.4,9.7-18.9,23.1-21.2,37.8l-0.5,3.4c0.6,5.4,0.6,11-0.3,16.6l-21.5,144.8c0.8,11.5,4.9,22.5,11.8,32
		c9.8,13.4,24.3,22.3,40.7,24.8l4.4,0.7c3.2,0.5,6.5,0.8,9.8,0.8c6.4,0,12.8-1,18.9-3l-11.7,81.4c-2.5,16.4,1.5,32.7,11.2,46.1
		c9.8,13.4,24.3,22.3,40.7,24.8l4.4,0.7c3.2,0.5,6.5,0.8,9.8,0.8c14.7,0,28.9-5.3,40.2-14.8c11.4-9.7,18.9-23.1,21.2-37.8L917.7,309
		C922.9,275.2,899.6,243.4,865.8,238.1z"/>
	<path id="XMLID_104_" fill="none" stroke="#231815" stroke-miterlimit="10" d="M695.1,289.3L716.3,142c-3.2-27.1-24-50-52.2-54.4
		c0,0,0,0,0,0l-4.4-0.7c-3.2-0.5-6.5-0.8-9.8-0.8c-14.7,0-29,5.3-40.2,14.8c-7.6,6.5-13.5,14.6-17.3,23.8c-1.8-4.2-4.1-8.3-6.9-12.1
		c-9.8-13.4-24.3-22.3-40.7-24.8l-4.4-0.7c-3.2-0.5-6.5-0.8-9.8-0.8c-14.7,0-29,5.3-40.2,14.8c-11.4,9.7-18.9,23.1-21.2,37.8
		L425.9,431c-1.8,11.4-0.3,23.1,4.2,33.8c9,23.6,31.8,39.7,56.8,40l121.6,1.4c0.3,0,0.8,0,0.8,0c18.6,0,35.9-8.4,47.6-23
		c8.4-9.1,13.8-20.3,15.7-32.6l21.8-147.1C694.2,298.7,694.4,294,695.1,289.3z"/>
	<path id="XMLID_103_" fill="none" stroke="#231815" stroke-miterlimit="10" d="M716.3,142l-21.2,147.3c-0.7,4.7-0.9,9.4-0.5,14.1
		L716,158.6C716.9,153,716.9,147.4,716.3,142z"/>
	<path id="XMLID_94_" fill="none" stroke="#231815" stroke-miterlimit="10" d="M1209,204.8c13.8,0,26.7-5.4,36.5-15.1
		c9.8-9.7,15.3-22.6,15.4-36.4l0-4.5c0.2-13.9-5.1-27-14.8-37c-9.7-9.9-22.8-15.5-36.7-15.6c-159-1.2-159.2-1.2-159.3-1.2
		c-13.8,0-26.7,5.4-36.5,15.1c-9.8,9.7-15.3,22.6-15.4,36.4l0,4.5c-0.3,28.7,22.8,52.3,51.6,52.6
		C1208.9,204.8,1208.9,204.8,1209,204.8z"/>
	<path id="XMLID_85_" fill="none" stroke="#231815" stroke-miterlimit="10" d="M425.3,106.4c-9.4-8.4-21.5-13-34-13.2
		c-92.7-0.5-203.1-1.1-203.2-1.1c-13.2,0-25.8,5-35.4,14c-9.4,8.8-15.1,20.6-16.3,33.4c-0.1,0.7-0.3,1.4-0.4,2L92.8,433.4
		c-2.1,13.7,1.2,27.4,9.4,38.6c8.2,11.2,20.3,18.6,34,20.7l4.4,0.7c2.7,0.4,5.5,0.6,8.2,0.6c12.3,0,24.2-4.4,33.6-12.4
		c6.2-5.3,11-11.8,14.2-19.2c1.5,3.3,3.3,6.4,5.4,9.3c8.2,11.2,20.3,18.6,34,20.7l4.4,0.7c2.7,0.4,5.5,0.6,8.2,0.6
		c12.3,0,24.2-4.4,33.6-12.4c6.2-5.3,11-11.8,14.2-19.2c1.5,3.3,3.3,6.4,5.4,9.3c8.2,11.2,20.3,18.6,34,20.7l4.4,0.7
		c2.7,0.4,5.5,0.6,8.2,0.6c12.3,0,24.2-4.4,33.6-12.4c9.5-8.1,15.8-19.3,17.7-31.6L443,157.7c1-6.6,0.8-13.3-0.8-19.8
		C440.5,125.8,434.5,114.6,425.3,106.4z"/>
	<path id="XMLID_76_" fill="none" stroke="#231815" stroke-miterlimit="10" d="M1180.1,348.5c13.8,0,26.7-5.4,36.5-15.1
		c9.8-9.7,15.3-22.6,15.4-36.4l0-4.5c0.2-13.9-5.1-27-14.8-37c-9.7-9.9-22.8-15.5-36.7-15.6c0,0,0,0,0,0
		c-159-1.2-159.2-1.2-159.3-1.2c-13.8,0-26.7,5.4-36.5,15.1c-9.8,9.7-15.3,22.6-15.4,36.4l0,4.5c-0.3,28.7,22.8,52.3,51.6,52.6
		l158.6,1.2C1179.6,348.5,1180.1,348.5,1180.1,348.5z"/>
	<path id="XMLID_57_" fill="none" stroke="#231815" stroke-miterlimit="10" d="M864.2,248.2L864.2,248.2l-4.4-0.7
		c-2.7-0.4-5.5-0.6-8.2-0.6c-11.6,0-22.8,3.9-31.9,11.1l14.6-101.2c4.3-28.3-15.1-54.9-43.4-59.3l-4.4-0.7c-2.7-0.4-5.5-0.6-8.2-0.6
		c-12.3,0-24.2,4.4-33.6,12.4c-9.5,8.1-15.8,19.3-17.7,31.6l-21.7,150.7c-2.1,13.7,1.2,27.4,9.4,38.6c8.2,11.2,20.3,18.6,34,20.8
		l4.4,0.7c2.7,0.4,5.5,0.6,8.2,0.6c11.6,0,22.8-3.9,31.9-11.1l-14.6,101.2c-2.1,13.7,1.2,27.4,9.4,38.6c8.2,11.2,20.3,18.6,34,20.7
		l4.4,0.7c2.7,0.4,5.5,0.6,8.2,0.6c12.3,0,24.2-4.4,33.6-12.4c9.5-8.1,15.8-19.3,17.7-31.6l21.7-150.7
		C912,279.2,892.5,252.6,864.2,248.2z"/>
	<path id="XMLID_48_" fill="none" stroke="#231815" stroke-miterlimit="10" d="M662.5,97.7C662.5,97.7,662.5,97.7,662.5,97.7
		l-4.4-0.7c-2.7-0.4-5.5-0.6-8.2-0.6c-12.3,0-24.2,4.4-33.6,12.4c-9.5,8.1-15.8,19.3-17.7,31.6L562,386.7l-9.4-0.1l34-229.3
		c2.1-13.7-1.2-27.4-9.4-38.6c-8.2-11.2-20.3-18.6-34-20.8l-4.4-0.7c-2.7-0.4-5.5-0.6-8.2-0.6c-12.3,0-24.2,4.4-33.6,12.4
		c-9.5,8.1-15.8,19.3-17.7,31.6L436,432.6c-1.5,9.6-0.2,19.4,3.6,28.4c7.4,19.8,26.5,33.3,47.4,33.5l121.6,1.4c0.2,0,0.7,0,0.7,0
		c15.6,0,30.1-7.1,39.9-19.5c7.1-7.6,11.8-17.1,13.4-27.5l43.3-291.9C710.3,128.8,690.8,102.1,662.5,97.7z"/>
	<path id="XMLID_42_" fill="none" stroke="#231815" stroke-miterlimit="10" d="M1049.7,193.4c159.2,1.2,159.2,1.2,159.2,1.2
		c11.1,0,21.5-4.3,29.3-12.1c7.9-7.8,12.3-18.2,12.4-29.2l0-4.5c0.1-11.2-4.1-21.7-11.9-29.7c-7.8-8-18.3-12.4-29.5-12.6
		c-26.6-0.2-159-1.2-159.2-1.2c-11.1,0-21.5,4.3-29.3,12.1c-7.9,7.8-12.3,18.2-12.4,29.2l0,4.5
		C1008.1,174.2,1026.7,193.1,1049.7,193.4C1049.7,193.4,1049.7,193.4,1049.7,193.4z"/>
	<path id="XMLID_36_" fill="none" stroke="#231815" stroke-miterlimit="10" d="M418.5,114c-7.5-6.7-17.2-10.5-27.4-10.6
		c-33.9-0.2-202.9-1.1-203-1.1c-10.6,0-20.7,4-28.4,11.2c-7.7,7.2-12.3,16.9-13.1,27.4c-0.2,0.8-0.3,1.4-0.4,2.1l-43.3,291.8
		c-1.7,11,1,22,7.5,31c6.6,9,16.3,14.9,27.3,16.7l4.4,0.7c2.2,0.3,4.4,0.5,6.6,0.5c9.8,0,19.4-3.6,27-10
		c7.6-6.5,12.7-15.5,14.2-25.4l38.2-257.7l10.7,0.1l-36.2,243.9c-1.7,11,1,22,7.5,31c6.6,9,16.3,14.9,27.3,16.7l4.4,0.7
		c2.2,0.3,4.4,0.5,6.6,0.5c9.8,0,19.4-3.6,27-10c7.6-6.5,12.7-15.5,14.2-25.4l38.1-257l10.7,0.1l-36.1,243.1c-1.7,11,1,22,7.5,31
		c6.6,9,16.3,14.9,27.3,16.7l4.4,0.7c2.2,0.3,4.4,0.5,6.6,0.5h0c9.8,0,19.4-3.6,27-10c7.6-6.5,12.7-15.5,14.2-25.4l43.3-291.8
		c0.8-5.5,0.6-11-0.7-16.4C430.8,129.9,426,120.7,418.5,114z"/>
	<path id="XMLID_30_" fill="none" stroke="#231815" stroke-miterlimit="10" d="M1180.1,338.3c11.1,0,21.5-4.3,29.3-12.1
		c7.9-7.8,12.3-18.2,12.4-29.2l0-4.5c0.1-11.2-4.1-21.7-11.9-29.7c-7.8-8-18.3-12.4-29.5-12.6c-26.6-0.2-159-1.2-159.2-1.2
		c-11.1,0-21.5,4.3-29.3,12.1c-7.9,7.8-12.3,18.2-12.4,29.2l0,4.5c-0.3,23,18.3,42,41.4,42.3l158.6,1.2
		C1179.7,338.3,1180.1,338.3,1180.1,338.3z"/>
	<path id="XMLID_18_" fill="none" stroke="#231815" stroke-miterlimit="10" d="M824.1,155.2c3.5-22.7-12.1-44.1-34.9-47.7l-4.4-0.7
		c-2.2-0.3-4.4-0.5-6.6-0.5c-9.8,0-19.4,3.6-27,10c-7.6,6.5-12.7,15.5-14.2,25.4l-21.7,150.6c-1.7,11,1,22,7.5,31
		c6.6,9,16.3,14.9,27.3,16.7l4.4,0.7c2.2,0.3,4.4,0.5,6.6,0.5h0c9.8,0,19.4-3.6,27-10c7.6-6.5,12.7-15.5,14.2-25.4L824.1,155.2z"/>
	<path id="XMLID_12_" fill="none" stroke="#231815" stroke-miterlimit="10" d="M862.6,258.3l-4.4-0.7c-2.2-0.3-4.4-0.5-6.6-0.5
		c-9.8,0-19.4,3.6-27,10c-7.6,6.5-12.7,15.5-14.2,25.4l-21.7,150.6c-1.7,11,1,22,7.5,31c6.6,9,16.3,14.9,27.3,16.7l4.4,0.7
		c2.2,0.3,4.4,0.5,6.6,0.5h0c9.8,0,19.4-3.6,27-10c7.6-6.5,12.7-15.5,14.2-25.4L897.5,306C901,283.2,885.4,261.8,862.6,258.3z"/>
	<path id="XMLID_6_" fill="none" stroke="#231815" stroke-miterlimit="10" d="M660.9,107.8l-4.4-0.7c-2.2-0.3-4.4-0.5-6.6-0.5
		c-9.8,0-19.4,3.6-27,10c-7.6,6.5-12.7,15.5-14.2,25.4l-37.8,255.1l-30.1-0.3l35.7-240.9c1.7-11-1-22-7.5-31.1
		c-6.6-9-16.3-14.9-27.3-16.7l-4.4-0.7c-2.2-0.3-4.4-0.5-6.6-0.5c-9.8,0-19.4,3.6-27,10c-7.6,6.5-12.7,15.5-14.2,25.4l-43.3,291.8
		c-1.2,7.8-0.2,15.8,3,23.1c5.9,16,21.2,26.9,38,27.1l121.6,1.4h0c0.2,0,0.6,0,0.6,0c12.6,0,24.3-5.8,32.1-15.9
		c5.9-6.2,9.7-13.9,11-22.4l43.3-291.8C699.3,132.8,683.7,111.4,660.9,107.8z"/>
	<path id="XMLID_10_" fill="none" stroke="#231815" stroke-miterlimit="10" d="M1178,369l-10.4-0.1L1178,369c0,0,1.1,0,1.1,0
		c0.3,0,1,0,1,0c19.2,0,37.2-7.5,50.9-21c13.6-13.5,21.3-31.5,21.5-50.7l0-4.5c0.2-19.4-7.1-37.7-20.7-51.5
		c-6.7-6.9-14.6-12.3-23.2-16c0.4,0,0.4,0,0.4,0c19.2,0,37.2-7.5,50.9-21c13.6-13.5,21.3-31.5,21.5-50.7l0-4.5
		c0.2-19.4-7.1-37.7-20.7-51.5c-13.5-13.8-31.7-21.6-51.2-21.8c-159.1-1.2-159.3-1.2-159.5-1.2c-19.2,0-37.2,7.5-50.9,21
		c-13.6,13.5-21.3,31.5-21.5,50.7l0,4.5c-0.2,17.3,5.9,34.2,17.1,47.5c7.4,8.7,16.7,15.6,27,20c-0.5,0-0.6,0-0.6,0
		c-19.2,0-37.2,7.5-50.9,21c-13.6,13.5-21.3,31.5-21.5,50.7l0,4.5c-0.4,32.6,21,60.5,50.6,69.9c3.3,1,6.7,1.9,10.1,2.4
		c3.6,0.6,7.3,0.9,11.1,1l147,1.1"/>
	<path id="XMLID_122_" fill="none" stroke="#231815" stroke-miterlimit="10" d="M997.2,374.6c-16.5,0-32,6.4-43.7,18
		c-11.7,11.6-18.3,27.1-18.4,43.6l0,4.5c-0.4,34.3,27.3,62.6,61.7,63l158.5,1.2c0.3,0,0.8,0,0.8,0c16.5,0,32-6.4,43.7-18
		c11.7-11.6,18.3-27.1,18.4-43.6l0-4.5c0.2-16.6-6.1-32.3-17.8-44.2c-11.6-11.9-27.2-18.5-43.9-18.7c0,0,0,0,0,0L998,374.6
		C997.7,374.6,997.5,374.6,997.2,374.6z"/>
	<path id="XMLID_67_" fill="none" stroke="#231815" stroke-miterlimit="10" d="M997.2,384.8c-13.8,0-26.7,5.4-36.5,15.1
		c-9.8,9.7-15.3,22.6-15.4,36.4l0,4.5c-0.3,28.7,22.8,52.3,51.6,52.6l158.6,1.2c0.2,0,0.7,0,0.7,0c13.8,0,26.7-5.4,36.5-15.1
		c9.8-9.7,15.3-22.6,15.4-36.4l0-4.5c0.2-13.9-5.1-27-14.8-37c-9.7-9.9-22.8-15.5-36.7-15.6c0,0,0,0,0,0l-158.6-1.2
		C997.7,384.8,997.4,384.8,997.2,384.8z"/>
	<path id="XMLID_24_" fill="none" stroke="#231815" stroke-miterlimit="10" d="M967.9,407.2c-7.9,7.8-12.3,18.2-12.4,29.2l0,4.5
		c-0.2,23.1,18.3,42,41.4,42.3l158.6,1.2c0.2,0,0.6,0,0.6,0c11.1,0,21.5-4.3,29.3-12.1c7.9-7.8,12.3-18.2,12.4-29.2l0-4.5
		c0.1-11.2-4.1-21.7-11.9-29.7c-7.8-8-18.3-12.4-29.5-12.6l-158.6-1.2C986.5,394.9,975.9,399.2,967.9,407.2z"/>
	<path id="XMLID_2_" fill="none" stroke="#231815" stroke-miterlimit="10" d="M1167.8,367.2c-3.7-0.6-7.4-0.3-11.2-0.3c0,0,0,0,0,0
		l-146.9-1.7c0,0-10.3-0.4-10.3-0.4l-1.3-0.2c-0.3,0-0.7-0.1-1-0.1c-19.2,0-37.2,7.5-50.9,21c-13.6,13.5-21.3,31.5-21.5,50.7l0,4.5
		c-0.4,40,31.8,72.9,71.9,73.3l158.5,1.2c0.3,0,1,0,1,0c19.2,0,37.2-7.5,50.9-21c13.6-13.5,21.3-31.5,21.5-50.7l0-4.5
		c0.2-19.4-7.1-37.7-20.7-51.5c-8.4-8.6-18.6-14.5-29.8-18.1C1174.7,368.2,1171.3,367.7,1167.8,367.2z"/>
</g>
</svg>
