<?xml version="1.0" encoding="utf-8"?>
<!-- Generator: Adobe Illustrator 19.0.0, SVG Export Plug-In . SVG Version: 6.00 Build 0)  -->
<svg version="1.2" baseProfile="tiny" xmlns="http://www.w3.org/2000/svg" xmlns:xlink="http://www.w3.org/1999/xlink" x="0px"
	 y="0px" width="1353.1px" height="594.3px" viewBox="0 0 1353.1 594.3" xml:space="preserve">

<g id="圖層_1">
	<path id="XMLID_194_" fill="none" stroke="#231815" stroke-miterlimit="10" d="M936.7,370.6c0.4,0.2,0.7,0.3,1.1,0.3
		c0.6,0,1.1-0.2,1.5-0.6c5.1-4.4,10.7-8.3,16.6-11.4c0.6-0.3,1.1-1,1.2-1.7c0.1-0.7-0.1-1.5-0.6-2c-4.8-5.2-9-11-12.5-17.2
		c-0.5-0.9-1.5-1.4-2.5-1.2c-1,0.2-1.8,1-1.9,2l-4.2,29.4C935.3,369.2,935.8,370.1,936.7,370.6z"/>
	<path id="XMLID_11_" fill="none" stroke="#231815" stroke-miterlimit="10" d="M1009.5,366.8c-3.5-0.6-6.8-1.4-10.1-2.4"/>
	<path id="XMLID_158_" fill="none" stroke="#231815" stroke-miterlimit="10" d="M867.4,227.9L867.4,227.9l-4.4-0.7
		c-6-0.9-12.1-1.1-18.1-0.6l9.7-67c6-39.4-21.1-76.4-60.5-82.5l-4.4-0.7c-3.8-0.6-7.6-0.9-11.4-0.9c-17.1,0-33.7,6.2-46.8,17.3
		c-6.1,5.2-11.2,11.2-15.3,18.1c-11.2-18.1-29.3-30.2-50.4-33.5l-4.4-0.7c-3.8-0.6-7.6-0.9-11.4-0.9c-17.1,0-33.7,6.2-46.8,17.3
		c-4,3.4-7.6,7.3-10.8,11.4c-11.4-14.5-27.5-24-45.8-26.9l-4.4-0.7c-3.8-0.6-7.6-0.9-11.4-0.9c-17.1,0-33.7,6.2-46.8,17.3
		c-10.8,9.2-18.6,21.3-22.6,34.7c-3.5-14.3-11.2-27.3-22.2-37.1c-13.1-11.6-29.9-18.2-47.4-18.4c-92.8-0.5-203.4-1.1-203.4-1.1
		c-18.4,0-35.9,7-49.3,19.5c-12.7,11.9-20.7,28-22.6,45.3c-0.1,0.6-0.2,1.2-0.3,1.9L72.5,430.3c-2.9,19.1,1.7,38.2,13.1,53.7
		C97,499.7,113.9,510,133,513l4.4,0.7c3.8,0.6,7.6,0.9,11.4,0.9c17.1,0,33.7-6.2,46.8-17.3c0.4-0.3,0.8-0.7,1.2-1.1
		c10.2,8.7,22.6,14.4,36,16.5l4.4,0.7c3.8,0.6,7.6,0.9,11.4,0.9c17.1,0,33.7-6.2,46.8-17.3c0.4-0.3,0.8-0.7,1.2-1.1
		c10.2,8.7,22.6,14.4,36,16.5l4.4,0.7c3.8,0.6,7.6,0.9,11.4,0.9c17.1,0,33.7-6.2,46.8-17.3c11-9.3,18.9-21.7,22.8-35.4
		c0.7,2.4,1.6,4.9,2.6,7.2c10.5,27.4,37.1,46,66.2,46.4l121.6,1.4c0.3,0,1,0,1,0c21.5,0,41.7-9.7,55.4-26.6
		c9.6-10.5,15.9-23.6,18.1-37.7L699,342.8c11.4,14.9,27.8,24.7,46.4,27.6l4.4,0.7c6,0.9,12.1,1.1,18.1,0.6l-9.7,67
		c-2.9,19,1.8,38.1,13.1,53.6c11.4,15.7,28.2,25.9,47.4,28.9l4.4,0.7c3.8,0.6,7.6,0.9,11.4,0.9c17.1,0,33.7-6.2,46.8-17.3
		c13.2-11.2,22-26.9,24.7-44.1l21.7-150.8C933.9,271.1,906.7,234.1,867.4,227.9z"/>
	<path id="XMLID_149_" fill="none" stroke="#231815" stroke-miterlimit="10" d="M1209,215c16.5,0,32-6.4,43.7-18
		c11.7-11.6,18.3-27.1,18.4-43.6l0-4.5c0.2-16.6-6.1-32.3-17.8-44.2c-11.6-11.9-27.2-18.5-44-18.7c-159.1-1.2-159.2-1.2-159.4-1.2
		c-16.5,0-32,6.4-43.7,18c-11.7,11.6-18.3,27.1-18.4,43.6l0,4.5c-0.4,34.3,27.3,62.6,61.7,63C1208.9,215,1208.9,215,1209,215z"/>
	<path id="XMLID_140_" fill="none" stroke="#231815" stroke-miterlimit="10" d="M452.3,136c-2.2-14.4-9.3-27.6-20.2-37.2
		c-11.2-10-25.7-15.6-40.7-15.8c-92.7-0.5-203.3-1.1-203.3-1.1c-15.8,0-30.8,6-42.4,16.8c-11,10.3-17.9,24.3-19.4,39.3
		c-0.1,0.7-0.2,1.3-0.3,1.9L82.7,431.8c-2.5,16.4,1.5,32.8,11.2,46.2c9.8,13.4,24.3,22.3,40.7,24.8l4.4,0.7c3.2,0.5,6.5,0.8,9.8,0.8
		c14.7,0,29-5.3,40.2-14.8c2.8-2.4,5.4-5,7.7-7.8c9.6,11.3,22.9,18.7,37.7,21l4.4,0.7c3.2,0.5,6.5,0.8,9.8,0.8
		c14.7,0,29-5.3,40.2-14.8c2.8-2.4,5.4-5,7.7-7.8c9.6,11.3,22.9,18.7,37.7,21l4.4,0.7c3.2,0.5,6.5,0.8,9.8,0.8
		c14.7,0,28.9-5.3,40.2-14.8c11.4-9.7,18.9-23.1,21.2-37.8l43.3-291.9C454.3,151.5,454,143.7,452.3,136z"/>
	<path id="XMLID_131_" fill="none" stroke="#231815" stroke-miterlimit="10" d="M1180.1,358.7c16.5,0,32-6.4,43.7-18
		c11.7-11.6,18.3-27.1,18.4-43.6l0-4.5c0.2-16.6-6.1-32.3-17.8-44.2c-11.6-11.9-27.2-18.5-43.9-18.7c0,0,0,0,0,0
		c-159.1-1.2-159.2-1.2-159.4-1.2c-16.5,0-32,6.4-43.7,18c-11.7,11.6-18.3,27.1-18.4,43.6l0,4.5c-0.4,34.3,27.3,62.6,61.7,63
		l158.5,1.2C1179.5,358.7,1180.1,358.7,1180.1,358.7z"/>
	<path id="XMLID_113_" fill="none" stroke="#231815" stroke-miterlimit="10" d="M865.8,238.1L865.8,238.1l-4.4-0.7
		c-3.2-0.5-6.5-0.8-9.8-0.8c-6.4,0-12.8,1-18.9,3l11.7-81.4c5.2-33.8-18.1-65.6-51.9-70.9l-4.4-0.7c-3.2-0.5-6.5-0.8-9.8-0.8
		c-14.7,0-29,5.3-40.2,14.8c-11.4,9.7-18.9,23.1-21.2,37.8l-0.5,3.4c0.6,5.4,0.6,11-0.3,16.6l-21.5,144.8c0.8,11.5,4.9,22.5,11.8,32
		c9.8,13.4,24.3,22.3,40.7,24.8l4.4,0.7c3.2,0.5,6.5,0.8,9.8,0.8c6.4,0,12.8-1,18.9-3l-11.7,81.4c-2.5,16.4,1.5,32.7,11.2,46.1
		c9.8,13.4,24.3,22.3,40.7,24.8l4.4,0.7c3.2,0.5,6.5,0.8,9.8,0.8c14.7,0,28.9-5.3,40.2-14.8c11.4-9.7,18.9-23.1,21.2-37.8L917.7,309
		C922.9,275.2,899.6,243.4,865.8,238.1z"/>
	<path id="XMLID_104_" fill="none" stroke="#231815" stroke-miterlimit="10" d="M695.1,289.3L716.3,142c-3.2-27.1-24-50-52.2-54.4
		c0,0,0,0,0,0l-4.4-0.7c-3.2-0.5-6.5-0.8-9.8-0.8c-14.7,0-29,5.3-40.2,14.8c-7.6,6.5-13.5,14.6-17.3,23.8c-1.8-4.2-4.1-8.3-6.9-12.1
		c-9.8-13.4-24.3-22.3-40.7-24.8l-4.4-0.7c-3.2-0.5-6.5-0.8-9.8-0.8c-14.7,0-29,5.3-40.2,14.8c-11.4,9.7-18.9,23.1-21.2,37.8
		L425.9,431c-1.8,11.4-0.3,23.1,4.2,33.8c9,23.6,31.8,39.7,56.8,40l121.6,1.4c0.3,0,0.8,0,0.8,0c18.6,0,35.9-8.4,47.6-23
		c8.4-9.1,13.8-20.3,15.7-32.6l21.8-147.1C694.2,298.7,694.4,294,695.1,289.3z"/>
	<path id="XMLID_103_" fill="none" stroke="#231815" stroke-miterlimit="10" d="M716.3,142l-21.2,147.3c-0.7,4.7-0.9,9.4-0.5,14.1
		L716,158.6C716.9,153,716.9,147.4,716.3,142z"/>
	<path id="XMLID_94_" fill="none" stroke="#231815" stroke-miterlimit="10" d="M1209,204.8c13.8,0,26.7-5.4,36.5-15.1
		c9.8-9.7,15.3-22.6,15.4-36.4l0-4.5c0.2-13.9-5.1-27-14.8-37c-9.7-9.9-22.8-15.5-36.7-15.6c-159-1.2-159.2-1.2-159.3-1.2
		c-13.8,0-26.7,5.4-36.5,15.1c-9.8,9.7-15.3,22.6-15.4,36.4l0,4.5c-0.3,28.7,22.8,52.3,51.6,52.6
		C1208.9,204.8,1208.9,204.8,1209,204.8z"/>
	<path id="XMLID_85_" fill="none" stroke="#231815" stroke-miterlimit="10" d="M425.3,106.4c-9.4-8.4-21.5-13-34-13.2
		c-92.7-0.5-203.1-1.1-203.2-1.1c-13.2,0-25.8,5-35.4,14c-9.4,8.8-15.1,20.6-16.3,33.4c-0.1,0.7-0.3,1.4-0.4,2L92.8,433.4
		c-2.1,13.7,1.2,27.4,9.4,38.6c8.2,11.2,20.3,18.6,34,20.7l4.4,0.7c2.7,0.4,5.5,0.6,8.2,0.6c12.3,0,24.2-4.4,33.6-12.4
		c6.2-5.3,11-11.8,14.2-19.2c1.5,3.3,3.3,6.4,5.4,9.3c8.2,11.2,20.3,18.6,34,20.7l4.4,0.7c2.7,0.4,5.5,0.6,8.2,0.6
		c12.3,0,24.2-4.4,33.6-12.4c6.2-5.3,11-11.8,14.2-19.2c1.5,3.3,3.3,6.4,5.4,9.3c8.2,11.2,20.3,18.6,34,20.7l4.4,0.7
		c2.7,0.4,5.5,0.6,8.2,0.6c12.3,0,24.2-4.4,33.6-12.4c9.5-8.1,15.8-19.3,17.7-31.6L443,157.7c1-6.6,0.8-13.3-0.8-19.8
		C440.5,125.8,434.5,114.6,425.3,106.4z"/>
	<path id="XMLID_76_" fill="none" stroke="#231815" stroke-miterlimit="10" d="M1180.1,348.5c13.8,0,26.7-5.4,36.5-15.1
		c9.8-9.7,15.3-22.6,15.4-36.4l0-4.5c0.2-13.9-5.1-27-14.8-37c-9.7-9.9-22.8-15.5-36.7-15.6c0,0,0,0,0,0
		c-159-1.2-159.2-1.2-159.3-1.2c-13.8,0-26.7,5.4-36.5,15.1c-9.8,9.7-15.3,22.6-15.4,36.4l0,4.5c-0.3,28.7,22.8,52.3,51.6,52.6
		l158.6,1.2C1179.6,348.5,1180.1,348.5,1180.1,348.5z"/>
	<path id="XMLID_57_" fill="none" stroke="#231815" stroke-miterlimit="10" d="M864.2,248.2L864.2,248.2l-4.4-0.7
		c-2.7-0.4-5.5-0.6-8.2-0.6c-11.6,0-22.8,3.9-31.9,11.1l14.6-101.2c4.3-28.3-15.1-54.9-43.4-59.3l-4.4-0.7c-2.7-0.4-5.5-0.6-8.2-0.6
		c-12.3,0-24.2,4.4-33.6,12.4c-9.5,8.1-15.8,19.3-17.7,31.6l-21.7,150.7c-2.1,13.7,1.2,27.4,9.4,38.6c8.2,11.2,20.3,18.6,34,20.8
		l4.4,0.7c2.7,0.4,5.5,0.6,8.2,0.6c11.6,0,22.8-3.9,31.9-11.1l-14.6,101.2c-2.1,13.7,1.2,27.4,9.4,38.6c8.2,11.2,20.3,18.6,34,20.7
		l4.4,0.7c2.7,0.4,5.5,0.6,8.2,0.6c12.3,0,24.2-4.4,33.6-12.4c9.5-8.1,15.8-19.3,17.7-31.6l21.7-150.7
		C912,279.2,892.5,252.6,864.2,248.2z"/>
	<path id="XMLID_48_" fill="none" stroke="#231815" stroke-miterlimit="10" d="M662.5,97.7C662.5,97.7,662.5,97.7,662.5,97.7
		l-4.4-0.7c-2.7-0.4-5.5-0.6-8.2-0.6c-12.3,0-24.2,4.4-33.6,12.4c-9.5,8.1-15.8,19.3-17.7,31.6L562,386.7l-9.4-0.1l34-229.3
		c2.1-13.7-1.2-27.4-9.4-38.6c-8.2-11.2-20.3-18.6-34-20.8l-4.4-0.7c-2.7-0.4-5.5-0.6-8.2-0.6c-12.3,0-24.2,4.4-33.6,12.4
		c-9.5,8.1-15.8,19.3-17.7,31.6L436,432.6c-1.5,9.6-0.2,19.4,3.6,28.4c7.4,19.8,26.5,33.3,47.4,33.5l121.6,1.4c0.2,0,0.7,0,0.7,0
		c15.6,0,30.1-7.1,39.9-19.5c7.1-7.6,11.8-17.1,13.4-27.5l43.3-291.9C710.3,128.8,690.8,102.1,662.5,97.7z"/>
	<path id="XMLID_42_" fill="none" stroke="#231815" stroke-miterlimit="10" d="M1049.7,193.4c159.2,1.2,159.2,1.2,159.2,1.2
		c11.1,0,21.5-4.3,29.3-12.1c7.9-7.8,12.3-18.2,12.4-29.2l0-4.5c0.1-11.2-4.1-21.7-11.9-29.7c-7.8-8-18.3-12.4-29.5-12.6
		c-26.6-0.2-159-1.2-159.2-1.2c-11.1,0-21.5,4.3-29.3,12.1c-7.9,7.8-12.3,18.2-12.4,29.2l0,4.5
		C1008.1,174.2,1026.7,193.1,1049.7,193.4C1049.7,193.4,1049.7,193.4,1049.7,193.4z"/>
	<path id="XMLID_36_" fill="none" stroke="#231815" stroke-miterlimit="10" d="M418.5,114c-7.5-6.7-17.2-10.5-27.4-10.6
		c-33.9-0.2-202.9-1.1-203-1.1c-10.6,0-20.7,4-28.4,11.2c-7.7,7.2-12.3,16.9-13.1,27.4c-0.2,0.8-0.3,1.4-0.4,2.1l-43.3,291.8
		c-1.7,11,1,22,7.5,31c6.6,9,16.3,14.9,27.3,16.7l4.4,0.7c2.2,0.3,4.4,0.5,6.6,0.5c9.8,0,19.4-3.6,27-10
		c7.6-6.5,12.7-15.5,14.2-25.4l38.2-257.7l10.7,0.1l-36.2,243.9c-1.7,11,1,22,7.5,31c6.6,9,16.3,14.9,27.3,16.7l4.4,0.7
		c2.2,0.3,4.4,0.5,6.6,0.5c9.8,0,19.4-3.6,27-10c7.6-6.5,12.7-15.5,14.2-25.4l38.1-257l10.7,0.1l-36.1,243.1c-1.7,11,1,22,7.5,31
		c6.6,9,16.3,14.9,27.3,16.7l4.4,0.7c2.2,0.3,4.4,0.5,6.6,0.5h0c9.8,0,19.4-3.6,27-10c7.6-6.5,12.7-15.5,14.2-25.4l43.3-291.8
		c0.8-5.5,0.6-11-0.7-16.4C430.8,129.9,426,120.7,418.5,114z"/>
	<path id="XMLID_30_" fill="none" stroke="#231815" stroke-miterlimit="10" d="M1180.1,338.3c11.1,0,21.5-4.3,29.3-12.1
		c7.9-7.8,12.3-18.2,12.4-29.2l0-4.5c0.1-11.2-4.1-21.7-11.9-29.7c-7.8-8-18.3-12.4-29.5-12.6c-26.6-0.2-159-1.2-159.2-1.2
		c-11.1,0-21.5,4.3-29.3,12.1c-7.9,7.8-12.3,18.2-12.4,29.2l0,4.5c-0.3,23,18.3,42,41.4,42.3l158.6,1.2
		C1179.7,338.3,1180.1,338.3,1180.1,338.3z"/>
	<path id="XMLID_18_" fill="none" stroke="#231815" stroke-miterlimit="10" d="M824.1,155.2c3.5-22.7-12.1-44.1-34.9-47.7l-4.4-0.7
		c-2.2-0.3-4.4-0.5-6.6-0.5c-9.8,0-19.4,3.6-27,10c-7.6,6.5-12.7,15.5-14.2,25.4l-21.7,150.6c-1.7,11,1,22,7.5,31
		c6.6,9,16.3,14.9,27.3,16.7l4.4,0.7c2.2,0.3,4.4,0.5,6.6,0.5h0c9.8,0,19.4-3.6,27-10c7.6-6.5,12.7-15.5,14.2-25.4L824.1,155.2z"/>
	<path id="XMLID_12_" fill="none" stroke="#231815" stroke-miterlimit="10" d="M862.6,258.3l-4.4-0.7c-2.2-0.3-4.4-0.5-6.6-0.5
		c-9.8,0-19.4,3.6-27,10c-7.6,6.5-12.7,15.5-14.2,25.4l-21.7,150.6c-1.7,11,1,22,7.5,31c6.6,9,16.3,14.9,27.3,16.7l4.4,0.7
		c2.2,0.3,4.4,0.5,6.6,0.5h0c9.8,0,19.4-3.6,27-10c7.6-6.5,12.7-15.5,14.2-25.4L897.5,306C901,283.2,885.4,261.8,862.6,258.3z"/>
	<path id="XMLID_6_" fill="none" stroke="#231815" stroke-miterlimit="10" d="M660.9,107.8l-4.4-0.7c-2.2-0.3-4.4-0.5-6.6-0.5
		c-9.8,0-19.4,3.6-27,10c-7.6,6.5-12.7,15.5-14.2,25.4l-37.8,255.1l-30.1-0.3l35.7-240.9c1.7-11-1-22-7.5-31.1
		c-6.6-9-16.3-14.9-27.3-16.7l-4.4-0.7c-2.2-0.3-4.4-0.5-6.6-0.5c-9.8,0-19.4,3.6-27,10c-7.6,6.5-12.7,15.5-14.2,25.4l-43.3,291.8
		c-1.2,7.8-0.2,15.8,3,23.1c5.9,16,21.2,26.9,38,27.1l121.6,1.4h0c0.2,0,0.6,0,0.6,0c12.6,0,24.3-5.8,32.1-15.9
		c5.9-6.2,9.7-13.9,11-22.4l43.3-291.8C699.3,132.8,683.7,111.4,660.9,107.8z"/>
	<path id="XMLID_10_" fill="none" stroke="#231815" stroke-miterlimit="10" d="M1178,369l-10.4-0.1L1178,369c0,0,1.1,0,1.1,0
		c0.3,0,1,0,1,0c19.2,0,37.2-7.5,50.9-21c13.6-13.5,21.3-31.5,21.5-50.7l0-4.5c0.2-19.4-7.1-37.7-20.7-51.5
		c-6.7-6.9-14.6-12.3-23.2-16c0.4,0,0.4,0,0.4,0c19.2,0,37.2-7.5,50.9-21c13.6-13.5,21.3-31.5,21.5-50.7l0-4.5
		c0.2-19.4-7.1-37.7-20.7-51.5c-13.5-13.8-31.7-21.6-51.2-21.8c-159.1-1.2-159.3-1.2-159.5-1.2c-19.2,0-37.2,7.5-50.9,21
		c-13.6,13.5-21.3,31.5-21.5,50.7l0,4.5c-0.2,17.3,5.9,34.2,17.1,47.5c7.4,8.7,16.7,15.6,27,20c-0.5,0-0.6,0-0.6,0
		c-19.2,0-37.2,7.5-50.9,21c-13.6,13.5-21.3,31.5-21.5,50.7l0,4.5c-0.4,32.6,21,60.5,50.6,69.9c3.3,1,6.7,1.9,10.1,2.4
		c3.6,0.6,7.3,0.9,11.1,1l147,1.1"/>
	<path id="XMLID_122_" fill="none" stroke="#231815" stroke-miterlimit="10" d="M997.2,374.6c-16.5,0-32,6.4-43.7,18
		c-11.7,11.6-18.3,27.1-18.4,43.6l0,4.5c-0.4,34.3,27.3,62.6,61.7,63l158.5,1.2c0.3,0,0.8,0,0.8,0c16.5,0,32-6.4,43.7-18
		c11.7-11.6,18.3-27.1,18.4-43.6l0-4.5c0.2-16.6-6.1-32.3-17.8-44.2c-11.6-11.9-27.2-18.5-43.9-18.7c0,0,0,0,0,0L998,374.6
		C997.7,374.6,997.5,374.6,997.2,374.6z"/>
	<path id="XMLID_67_" fill="none" stroke="#231815" stroke-miterlimit="10" d="M997.2,384.8c-13.8,0-26.7,5.4-36.5,15.1
		c-9.8,9.7-15.3,22.6-15.4,36.4l0,4.5c-0.3,28.7,22.8,52.3,51.6,52.6l158.6,1.2c0.2,0,0.7,0,0.7,0c13.8,0,26.7-5.4,36.5-15.1
		c9.8-9.7,15.3-22.6,15.4-36.4l0-4.5c0.2-13.9-5.1-27-14.8-37c-9.7-9.9-22.8-15.5-36.7-15.6c0,0,0,0,0,0l-158.6-1.2
		C997.7,384.8,997.4,384.8,997.2,384.8z"/>
	<path id="XMLID_24_" fill="none" stroke="#231815" stroke-miterlimit="10" d="M967.9,407.2c-7.9,7.8-12.3,18.2-12.4,29.2l0,4.5
		c-0.2,23.1,18.3,42,41.4,42.3l158.6,1.2c0.2,0,0.6,0,0.6,0c11.1,0,21.5-4.3,29.3-12.1c7.9-7.8,12.3-18.2,12.4-29.2l0-4.5
		c0.1-11.2-4.1-21.7-11.9-29.7c-7.8-8-18.3-12.4-29.5-12.6l-158.6-1.2C986.5,394.9,975.9,399.2,967.9,407.2z"/>
	<path id="XMLID_2_" fill="none" stroke="#231815" stroke-miterlimit="10" d="M1167.8,367.2c-3.7-0.6-7.4-0.3-11.2-0.3c0,0,0,0,0,0
		l-146.9-1.7c0,0-10.3-0.4-10.3-0.4l-1.3-0.2c-0.3,0-0.7-0.1-1-0.1c-19.2,0-37.2,7.5-50.9,21c-13.6,13.5-21.3,31.5-21.5,50.7l0,4.5
		c-0.4,40,31.8,72.9,71.9,73.3l158.5,1.2c0.3,0,1,0,1,0c19.2,0,37.2-7.5,50.9-21c13.6-13.5,21.3-31.5,21.5-50.7l0-4.5
		c0.2-19.4-7.1-37.7-20.7-51.5c-8.4-8.6-18.6-14.5-29.8-18.1C1174.7,368.2,1171.3,367.7,1167.8,367.2z"/>
</g>
</svg>
